<svg xmlns="http://www.w3.org/2000/svg" xmlns:xlink="http://www.w3.org/1999/xlink" width="46" height="53" viewBox="0 0 46 53">
  <defs>
    <filter id="合体_2" x="0" y="0" width="46" height="53" filterUnits="userSpaceOnUse">
      <feOffset dx="3" dy="3" input="SourceAlpha"/>
      <feGaussianBlur stdDeviation="1" result="blur"/>
      <feFlood flood-opacity="0.2"/>
      <feComposite operator="in" in2="blur"/>
      <feComposite in="SourceGraphic"/>
    </filter>
  </defs>
  <g id="グループ_2686" data-name="グループ 2686" transform="translate(7567 18190)">
    <g transform="matrix(1, 0, 0, 1, -7567, -18190)" filter="url(#合体_2)">
      <path id="合体_2-2" data-name="合体 2" d="M17.032,40.181A20.218,20.218,0,0,1,20,0,20.222,20.222,0,0,1,23.86,40.026L20.407,47Z" fill="#00ABEB"/>
    </g>
    <g id="車アイコン" transform="translate(-7559.822 -18304.148)">
      <path id="パス_5778" data-name="パス 5778" d="M23.666,132.068l-1.609-2.561a2.974,2.974,0,0,0-2.517-1.391H12.045a4.694,4.694,0,0,0-3.351,1.407L6.555,131.7l-5.1,1.181A1.878,1.878,0,0,0,0,134.714v2a.783.783,0,0,0,.782.782H3.494c0,.054-.009.108-.009.162a2.553,2.553,0,0,0,5.105,0c0-.054-.005-.108-.009-.162h8.026c0,.054-.009.108-.009.162a2.552,2.552,0,0,0,5.1,0c0-.054,0-.108-.008-.162h1.74a.783.783,0,0,0,.782-.782v-2.734A3.6,3.6,0,0,0,23.666,132.068ZM6.039,138.679a1.017,1.017,0,1,1,1.017-1.017A1.017,1.017,0,0,1,6.039,138.679Zm6.455-6.418H7.9l1.76-1.794a3.366,3.366,0,0,1,2.389-1h.449v2.8Zm5.244,0H13.673v-2.8h4.065Zm1.414,6.418a1.017,1.017,0,1,1,1.017-1.017A1.018,1.018,0,0,1,19.151,138.679Zm-.234-6.418v-2.8h.622a1.614,1.614,0,0,1,1.375.76l1.28,2.037Z" fill="#fff"/>
    </g>
  </g>
</svg>
