<svg xmlns="http://www.w3.org/2000/svg" xmlns:xlink="http://www.w3.org/1999/xlink" width="46" height="53" viewBox="0 0 46 53">
  <defs>
    <filter id="合体_2" x="0" y="0" width="46" height="53" filterUnits="userSpaceOnUse">
      <feOffset dx="3" dy="3" input="SourceAlpha"/>
      <feGaussianBlur stdDeviation="1" result="blur"/>
      <feFlood flood-opacity="0.2"/>
      <feComposite operator="in" in2="blur"/>
      <feComposite in="SourceGraphic"/>
    </filter>
  </defs>
  <g id="グループ_2689" data-name="グループ 2689" transform="translate(7408 18190)">
    <g transform="matrix(1, 0, 0, 1, -7408, -18190)" filter="url(#合体_2)">
      <path id="合体_2-2" data-name="合体 2" d="M17.032,40.181A20.218,20.218,0,0,1,20,0,20.222,20.222,0,0,1,23.86,40.026L20.407,47Z" fill="#00ABEB"/>
    </g>
    <g id="バスケットボールアイコン6" transform="translate(-7397.675 -18179.047)">
      <path id="パス_5789" data-name="パス 5789" d="M253.811,6.2q.633.669,1.217,1.42c.264-.108.529-.211.8-.306a14.878,14.878,0,0,1,4.035-.838c.363-.023.724-.029,1.082-.023-.211-.224-.43-.438-.66-.64a9.71,9.71,0,0,0-4.795-2.278,4.9,4.9,0,0,1-.427,1.176,4.477,4.477,0,0,1-.775,1.067A4.7,4.7,0,0,1,253.811,6.2Z" transform="translate(-244.219 -3.398)" fill="#fff"/>
      <path id="パス_5790" data-name="パス 5790" d="M308.791,109.844a14.066,14.066,0,0,0-3.725.81q-.241.087-.481.182a21.058,21.058,0,0,1,1.664,2.885,5.242,5.242,0,0,1,1.163-.324,4.475,4.475,0,0,1,2.046.163,6.588,6.588,0,0,1,1.713.869c.45.311.86.64,1.252.964a9.713,9.713,0,0,0-1.706-5.547A12.769,12.769,0,0,0,308.791,109.844Z" transform="translate(-293.073 -105.656)" fill="#fff"/>
      <path id="パス_5791" data-name="パス 5791" d="M4.678,95.6a18.389,18.389,0,0,1,3.095-2.974,12.762,12.762,0,0,1,1.869-1.161l.1-.047q-.534-.68-1.112-1.292a8.718,8.718,0,0,1-2.07.723c-.855.191-1.689.288-2.482.389a19.273,19.273,0,0,0-2.246.376q-.347.086-.672.2a9.676,9.676,0,0,0,.008,9.183q.529-1.043,1.16-2.087A27.026,27.026,0,0,1,4.678,95.6Z" transform="translate(0 -86.713)" fill="#fff"/>
      <path id="パス_5792" data-name="パス 5792" d="M184.815.79a3.808,3.808,0,0,0,.314-.774,9.664,9.664,0,0,0-2.95.3q-.178.047-.353.1a18.887,18.887,0,0,1,1.9,1.564A3.431,3.431,0,0,0,184.815.79Z" transform="translate(-174.954 0)" fill="#fff"/>
      <path id="パス_5793" data-name="パス 5793" d="M60.7,24.523a18.621,18.621,0,0,0-2.073-1.676,9.617,9.617,0,0,0-3.274,2.422c-.115.131-.225.266-.333.4,1.4-.308,2.843-.383,4.223-.692A8.112,8.112,0,0,0,60.7,24.523Z" transform="translate(-52.938 -21.98)" fill="#fff"/>
      <path id="パス_5794" data-name="パス 5794" d="M56.234,155.049a7.481,7.481,0,0,1,1.214-1.641,7.1,7.1,0,0,1,1.363-1.076,20.736,20.736,0,0,0-1.7-2.939c-.092.044-.185.087-.276.133a11.835,11.835,0,0,0-1.7,1.06,17.726,17.726,0,0,0-2.908,2.781,27.075,27.075,0,0,0-2.282,3.153c-.532.853-1.012,1.713-1.441,2.567a9.691,9.691,0,0,0,5.772,3.785c.058-.248.11-.5.158-.764.1-.539.182-1.1.271-1.674a23.4,23.4,0,0,1,.762-3.578A10.079,10.079,0,0,1,56.234,155.049Z" transform="translate(-46.672 -143.743)" fill="#fff"/>
      <path id="パス_5795" data-name="パス 5795" d="M233.306,255.485a5.981,5.981,0,0,0-1.009.82,7.474,7.474,0,0,0-1.714,2.987,23.424,23.424,0,0,0-.756,3.4c-.1.57-.189,1.138-.3,1.7-.049.244-.1.488-.162.73a9.713,9.713,0,0,0,5.865-1.256c-.071-.858-.173-1.737-.32-2.633A26.238,26.238,0,0,0,233.306,255.485Z" transform="translate(-220.694 -245.827)" fill="#fff"/>
      <path id="パス_5796" data-name="パス 5796" d="M363.454,233.833a3.351,3.351,0,0,0-1.533-.111,4.114,4.114,0,0,0-.869.244,25.915,25.915,0,0,1,1.668,6.117c.107.72.186,1.427.242,2.121a9.689,9.689,0,0,0,3.7-6.3s0-.006,0-.008c-.593-.468-1.164-.95-1.777-1.356A5.54,5.54,0,0,0,363.454,233.833Z" transform="translate(-347.407 -224.846)" fill="#fff"/>
    </g>
  </g>
</svg>
