<svg xmlns="http://www.w3.org/2000/svg" xmlns:xlink="http://www.w3.org/1999/xlink" width="46" height="53" viewBox="0 0 46 53">
  <defs>
    <filter id="合体_2" x="0" y="0" width="46" height="53" filterUnits="userSpaceOnUse">
      <feOffset dx="3" dy="3" input="SourceAlpha"/>
      <feGaussianBlur stdDeviation="1" result="blur"/>
      <feFlood flood-opacity="0.2"/>
      <feComposite operator="in" in2="blur"/>
      <feComposite in="SourceGraphic"/>
    </filter>
  </defs>
  <g id="グループ_2691" data-name="グループ 2691" transform="translate(7302 18190)">
    <g transform="matrix(1, 0, 0, 1, -7302, -18190)" filter="url(#合体_2)">
      <path id="合体_2-2" data-name="合体 2" d="M17.032,40.181A20.218,20.218,0,0,1,20,0,20.222,20.222,0,0,1,23.86,40.026L20.407,47Z" fill="#00ABEB"/>
    </g>
    <g id="魚の無料アイコン素材" transform="translate(-7294.13 -18257.232)">
      <path id="パス_5804" data-name="パス 5804" d="M22.433,88.089l1.808-4.671a.251.251,0,0,0-.382-.292l-4.694,3.463c-1.01-.119-2.1-2.533-6.913-3.731l1.406-.2a.751.751,0,0,0,.6-1l-.707-1.944a.751.751,0,0,0-1.221-.291L9.112,82.45C3.906,82.564,0,86.755,0,88.089c.177,1.118,2.316,3.689,5.555,4.939a10.247,10.247,0,0,0,.83-1.363A7.052,7.052,0,0,0,7.2,88.55a3.5,3.5,0,0,0-.067-.723.53.53,0,0,1,1.037-.221,4.585,4.585,0,0,1,.09.945,8.1,8.1,0,0,1-.929,3.589,11,11,0,0,1-.726,1.232,10.088,10.088,0,0,0,3.623.318l.959,1.869a.75.75,0,0,0,1.079.286L13,95.366a.751.751,0,0,0,.061-1.214l-.981-.79c4.955-1.181,6.062-3.651,7.083-3.772l4.694,3.463a.25.25,0,0,0,.382-.292Zm-18.809.354a.795.795,0,1,1,.795-.795A.8.8,0,0,1,3.623,88.442Z" fill="#fff"/>
    </g>
  </g>
</svg>
