<svg xmlns="http://www.w3.org/2000/svg" xmlns:xlink="http://www.w3.org/1999/xlink" width="46" height="53" viewBox="0 0 46 53">
  <defs>
    <filter id="合体_2" x="0" y="0" width="46" height="53" filterUnits="userSpaceOnUse">
      <feOffset dx="3" dy="3" input="SourceAlpha"/>
      <feGaussianBlur stdDeviation="1" result="blur"/>
      <feFlood flood-opacity="0.2"/>
      <feComposite operator="in" in2="blur"/>
      <feComposite in="SourceGraphic"/>
    </filter>
  </defs>
  <g id="グループ_2685" data-name="グループ 2685" transform="translate(7620 18190)">
    <g transform="matrix(1, 0, 0, 1, -7620, -18190)" filter="url(#合体_2)">
      <path id="合体_2-2" data-name="合体 2" d="M17.032,40.181A20.218,20.218,0,0,1,20,0,20.222,20.222,0,0,1,23.86,40.026L20.407,47Z" fill="#00ABEB"/>
    </g>
    <g id="飛行機の無料アイコン素材" transform="translate(-7609.652 -18182.742)">
      <path id="パス_5777" data-name="パス 5777" d="M19.268,13.9a1.1,1.1,0,0,0-.687-.956l-7.312-2.793c-.009-4.1-.51-6.921-1.617-6.921S8.044,6.053,8.035,10.149L.723,12.943a1.1,1.1,0,0,0-.687.956L0,14.868a.468.468,0,0,0,.185.384.586.586,0,0,0,.447.115s5.719-.843,7.466-1.114c.07,3.092.152,4.812.152,4.812l-1.935.911a.6.6,0,0,0-.377.554v.357a.6.6,0,0,0,.629.6l2.444-.138c.078.544.335.944.64.944s.561-.4.64-.944l2.444.138a.6.6,0,0,0,.629-.6V20.53a.6.6,0,0,0-.377-.554l-1.935-.911s.082-1.72.152-4.812c1.748.271,7.466,1.114,7.466,1.114a.585.585,0,0,0,.447-.115.47.47,0,0,0,.185-.384Z" transform="translate(0)" fill="#fff"/>
    </g>
  </g>
</svg>
