<svg xmlns="http://www.w3.org/2000/svg" xmlns:xlink="http://www.w3.org/1999/xlink" width="46" height="53" viewBox="0 0 46 53">
  <defs>
    <filter id="合体_2" x="0" y="0" width="46" height="53" filterUnits="userSpaceOnUse">
      <feOffset dx="3" dy="3" input="SourceAlpha"/>
      <feGaussianBlur stdDeviation="1" result="blur"/>
      <feFlood flood-opacity="0.2"/>
      <feComposite operator="in" in2="blur"/>
      <feComposite in="SourceGraphic"/>
    </filter>
  </defs>
  <g id="グループ_2693" data-name="グループ 2693" transform="translate(7196 18190)">
    <g transform="matrix(1, 0, 0, 1, -7196, -18190)" filter="url(#合体_2)">
      <path id="合体_2-2" data-name="合体 2" d="M17.032,40.181A20.218,20.218,0,0,1,20,0,20.222,20.222,0,0,1,23.86,40.026L20.407,47Z" fill="#00ABEB"/>
    </g>
    <g id="タクシーの無料アイコン5" transform="translate(-7188.186 -18277.91)">
      <path id="パス_5782" data-name="パス 5782" d="M23.457,166.191H22.4a1.7,1.7,0,0,1-1.351-.8l-1.733-3.194a1.7,1.7,0,0,0-1.351-.8H9.835a2.106,2.106,0,0,0-1.473.724l-2.586,3.353a2.108,2.108,0,0,1-1.473.724H2.881a2.5,2.5,0,0,0-2.79,2.28L0,170.077a.918.918,0,0,0,.915.916H3.165a2.514,2.514,0,0,0,5.009,0h8.862a2.241,2.241,0,0,0,4.459,0h1.961a.918.918,0,0,0,.914-.916v-2.971A.917.917,0,0,0,23.457,166.191Zm-17.786,5.7a1.12,1.12,0,1,1,1.12-1.12A1.12,1.12,0,0,1,5.67,171.892Zm8.184-5.743H7.241l.344-.446L9.7,162.965a1.257,1.257,0,0,1,.781-.384h3.377Zm1.1,0v-3.568h2.563a.853.853,0,0,1,.6.356l1.647,3.213Zm4.314,5.743a1.12,1.12,0,1,1,1.12-1.12A1.12,1.12,0,0,1,19.266,171.892Z" transform="translate(0 -57.813)" fill="#fff"/>
      <path id="パス_5783" data-name="パス 5783" d="M215.486,101.743a.538.538,0,0,1,.537-.537h5.01a.538.538,0,0,1,.538.537v1.452h.518v-1.452a1.055,1.055,0,0,0-1.055-1.055h-5.01a1.056,1.056,0,0,0-1.055,1.055v1.452h.518Z" transform="translate(-204.736)" fill="#fff"/>
      <path id="パス_5784" data-name="パス 5784" d="M241,122.854h.263a.019.019,0,0,0,.021-.019v-1.061c0-.008,0-.011.012-.011h.356a.019.019,0,0,0,.02-.021v-.22a.019.019,0,0,0-.02-.021h-1.04a.02.02,0,0,0-.021.021v.22a.02.02,0,0,0,.021.021h.355c.008,0,.013,0,.013.011v1.061A.019.019,0,0,0,241,122.854Z" transform="translate(-229.142 -19.821)" fill="#fff"/>
      <path id="パス_5785" data-name="パス 5785" d="M265.165,121.5a.027.027,0,0,0-.027.021l-.484,1.313c0,.012,0,.019.014.019h.271a.026.026,0,0,0,.027-.019l.079-.238h.492l.08.238a.025.025,0,0,0,.028.019h.269c.015,0,.019-.007.015-.019l-.476-1.313a.028.028,0,0,0-.027-.021Zm.29.848h-.325l.159-.473h.006Z" transform="translate(-252.055 -19.821)" fill="#fff"/>
      <path id="パス_5786" data-name="パス 5786" d="M295.2,122.854h.286a.035.035,0,0,0,.035-.019l.252-.412h.006l.251.412a.036.036,0,0,0,.035.019h.289c.013,0,.018-.012.012-.024l-.422-.675.393-.631c.006-.012,0-.024-.013-.024h-.287a.035.035,0,0,0-.034.021l-.223.366h-.006l-.223-.366a.035.035,0,0,0-.034-.021h-.287c-.015,0-.019.012-.012.024l.391.631-.42.675A.014.014,0,0,0,295.2,122.854Z" transform="translate(-281.137 -19.821)" fill="#fff"/>
      <path id="パス_5787" data-name="パス 5787" d="M326.875,121.521v1.313a.019.019,0,0,0,.021.019h.263a.019.019,0,0,0,.021-.019v-1.313a.02.02,0,0,0-.021-.021H326.9A.02.02,0,0,0,326.875,121.521Z" transform="translate(-311.316 -19.821)" fill="#fff"/>
    </g>
  </g>
</svg>
